<?xml version="1.0" encoding="utf-8"?>
<!-- Generator: Adobe Illustrator 26.3.1, SVG Export Plug-In . SVG Version: 6.00 Build 0)  -->
<svg version="1.1" id="Warstwa_1" xmlns="http://www.w3.org/2000/svg" xmlns:xlink="http://www.w3.org/1999/xlink" x="0px" y="0px"
	 viewBox="0 0 435.1 137.38" style="enable-background:new 0 0 435.1 137.38;" xml:space="preserve">
<style type="text/css">
	.st0{fill:#E20613;stroke:#E20613;stroke-width:0.75;}
	.st1{fill:#E20613;}
</style>
<g>
	<line class="st0" x1="133.51" y1="32.15" x2="133.51" y2="105.66"/>
	<g>
		<g>
			<path class="st1" d="M85.71,35.12c-5.39-1.89-11.74-2.98-18.54-2.98c-6.8,0-13.15,1.09-18.54,2.98
				c-1.89,5.4-2.99,11.74-2.99,18.55c0,6.79,1.09,13.14,2.99,18.54c5.39,1.9,11.74,2.99,18.54,2.99c6.8,0,13.15-1.09,18.54-2.99
				c1.9-5.39,2.99-11.74,2.99-18.54C88.71,46.86,87.61,40.52,85.71,35.12z M85.18,53.67c0,5.68-0.92,11-2.5,15.51
				c-4.51,1.59-9.82,2.5-15.51,2.5c-5.69,0-11-0.92-15.51-2.5c-1.58-4.51-2.5-9.82-2.5-15.51c0-5.69,0.92-11,2.5-15.52
				c4.51-1.58,9.82-2.5,15.51-2.5c5.68,0,11,0.92,15.51,2.5C84.27,42.67,85.18,47.98,85.18,53.67z"/>
			<path class="st1" d="M67.08,49.76c-5.25,0-10.19,0.26-14.45,0.71V57h8.29c1.27,0,2.29,1.02,2.29,2.29v8.91h7.91v-8.91
				c0-1.26,1.02-2.29,2.29-2.29h8.29v-6.51C77.41,50.02,72.42,49.76,67.08,49.76z M63.22,39.13v7.03h7.91v-7.03H63.22z"/>
		</g>
	</g>
	<g>
		<g>
			<g>
				<path class="st1" d="M24.5,86.96h4.95c0.6,0,1,0.08,1.19,0.24c0.2,0.16,0.29,0.47,0.29,0.96v7.35h3.27v-7.35
					c0-0.49,0.1-0.81,0.3-0.96c0.2-0.15,0.6-0.24,1.19-0.24h4.95v-1.61H24.5V86.96z"/>
				<path class="st1" d="M43.15,86.04c-0.47,0.46-0.7,1.2-0.7,2.21v4.37c0,1.03,0.23,1.76,0.7,2.22c0.47,0.45,1.25,0.68,2.32,0.68
					h10.87V93.6h-9.14c-0.6,0-0.99-0.08-1.19-0.23c-0.2-0.15-0.3-0.47-0.3-0.96V91.1h7.01v-1.54h-7.01v-1.39
					c0-0.49,0.1-0.8,0.3-0.96c0.2-0.15,0.6-0.24,1.19-0.24h8.08v-1.61h-9.81C44.4,85.36,43.63,85.59,43.15,86.04z"/>
				<path class="st1" d="M89.39,85.47l-5.43,3.94l-5.48-3.94h-2.56v10.05h3.02v-6.88c0-0.15,0.12-0.26,0.27-0.26
					c0.05,0,0.1,0.02,0.15,0.04l4.61,3.3l4.58-3.3c0.04-0.03,0.09-0.04,0.14-0.04c0.15,0,0.26,0.11,0.27,0.26v6.88h3.02V85.47H89.39
					z"/>
				<path class="st1" d="M109.09,86.04c-0.47-0.46-1.24-0.69-2.32-0.69h-9.34c-1.07,0-1.84,0.23-2.31,0.69
					c-0.47,0.46-0.71,1.2-0.71,2.22v7.25h3.27v-3.33h8.85v3.33h3.27v-7.25C109.8,87.25,109.56,86.51,109.09,86.04z M97.68,90.64
					v-2.47c0-0.48,0.09-0.81,0.3-0.96c0.2-0.16,0.59-0.24,1.19-0.24h5.88c0.6,0,0.99,0.08,1.19,0.24c0.2,0.15,0.29,0.48,0.29,0.96
					v2.47H97.68z"/>
				<path class="st1" d="M72.21,92.42c-0.26-0.48-0.58-0.81-0.97-1.02c1.11-0.45,1.94-1.3,1.94-2.81c0.01-2.45-2.13-3.17-4.15-3.23
					H58.81v10.16h3.26v-2.93c0-0.61,0.49-0.76,1.08-0.76H66c0.01,0,0.02,0,0.03,0h1.49l0,0h0.03c0.52,0,0.92,0.08,1.2,0.24
					c0.28,0.16,0.52,0.44,0.73,0.84l1.37,2.62h3.06L72.21,92.42z M68.44,90.34h-6.38l-0.01-3.38l6.42,0c1.06,0,1.64,0.36,1.62,1.7
					C70.08,90,69.57,90.34,68.44,90.34z"/>
			</g>
		</g>
	</g>
</g>
<g>
	<path class="st1" d="M185.32,54.4l-9.28,22.4h-0.32l-4.22-21.5c-0.02-0.08-0.03-0.18-0.04-0.27c-0.01-0.1-0.01-0.19-0.02-0.29
		c-0.05,0.2-0.12,0.39-0.19,0.56l-9.5,21.5h-0.32l-3.78-22.4h0.29c0.11,0,0.16,0.05,0.16,0.16l3.46,21.06
		c0.04,0.21,0.08,0.45,0.11,0.7c0.04-0.13,0.08-0.25,0.13-0.36c0.04-0.11,0.09-0.23,0.14-0.34l9.31-21.06
		c0.04-0.11,0.12-0.16,0.22-0.16h0.06c0.1,0,0.15,0.05,0.16,0.16l4.13,21.06c0.04,0.21,0.08,0.45,0.11,0.7
		c0.04-0.13,0.08-0.25,0.13-0.36c0.04-0.11,0.09-0.23,0.14-0.34l8.61-21.06c0.02-0.05,0.06-0.09,0.1-0.12
		c0.05-0.03,0.1-0.04,0.15-0.04H185.32z"/>
	<path class="st1" d="M205.61,63.79c0,2.02-0.28,3.83-0.85,5.43s-1.35,2.97-2.35,4.1c-1,1.13-2.19,1.99-3.57,2.58
		c-1.38,0.6-2.87,0.9-4.48,0.9h-7.46l2.77-22.5h7.46c1.3,0,2.47,0.22,3.52,0.66c1.05,0.44,1.94,1.07,2.67,1.89
		c0.74,0.82,1.3,1.82,1.7,2.99C205.42,61.02,205.61,62.33,205.61,63.79z M204.7,63.81c0-1.38-0.18-2.61-0.54-3.7
		c-0.36-1.09-0.87-2.01-1.54-2.77c-0.67-0.76-1.47-1.34-2.42-1.74c-0.94-0.4-2-0.6-3.16-0.6h-6.59l-2.61,21.09h6.59
		c1.47,0,2.83-0.28,4.09-0.83c1.25-0.55,2.34-1.36,3.25-2.41c0.91-1.05,1.63-2.34,2.14-3.86C204.44,67.48,204.7,65.75,204.7,63.81z"
		/>
	<path class="st1" d="M232.19,54.31l-2.77,22.5h-0.75l2.53-20.59c0.01-0.07,0.02-0.15,0.03-0.22c0.01-0.07,0.03-0.15,0.05-0.24
		L220.6,72.27c-0.12,0.17-0.25,0.26-0.4,0.26h-0.16c-0.17,0-0.28-0.08-0.34-0.26l-6.91-16.59c0,0.09,0,0.17-0.01,0.26
		c-0.01,0.09-0.01,0.18-0.02,0.26l-2.51,20.59h-0.75l2.77-22.5h0.51c0.15,0,0.27,0.06,0.37,0.19l6.94,16.74
		c0.05,0.14,0.1,0.28,0.13,0.43c0.03-0.08,0.07-0.15,0.1-0.22c0.04-0.07,0.08-0.14,0.14-0.21l10.82-16.74
		c0.06-0.08,0.12-0.13,0.18-0.15c0.05-0.03,0.13-0.04,0.22-0.04H232.19z"/>
	<path class="st1" d="M243.76,75.68c0.99,0,1.9-0.19,2.73-0.58c0.83-0.38,1.55-0.91,2.18-1.58s1.14-1.47,1.54-2.38
		c0.41-0.92,0.67-1.9,0.8-2.96l1.73-14.02h1.58l-1.71,14.02c-0.16,1.25-0.49,2.41-0.99,3.5c-0.5,1.08-1.14,2.02-1.93,2.82
		s-1.69,1.43-2.73,1.89c-1.04,0.46-2.17,0.69-3.39,0.69c-1.22,0-2.28-0.23-3.2-0.69c-0.92-0.46-1.67-1.09-2.26-1.89
		c-0.59-0.8-1-1.74-1.23-2.82s-0.28-2.25-0.13-3.5l1.71-14.02h1.58l-1.71,14c-0.13,1.06-0.1,2.04,0.07,2.96
		c0.18,0.92,0.49,1.71,0.95,2.39c0.46,0.68,1.06,1.21,1.8,1.59C241.9,75.49,242.76,75.68,243.76,75.68z"/>
	<path class="st1" d="M266.44,74.48c0.7,0,1.33-0.06,1.87-0.18s1.02-0.26,1.44-0.43s0.77-0.36,1.06-0.57
		c0.29-0.21,0.55-0.4,0.77-0.57c0.22-0.17,0.4-0.31,0.55-0.43s0.28-0.18,0.4-0.18c0.1,0,0.18,0.02,0.24,0.06
		c0.06,0.04,0.12,0.08,0.16,0.14l1.04,1.3c-1,1.09-2.16,1.93-3.46,2.54c-1.31,0.6-2.83,0.9-4.57,0.9c-1.38,0-2.61-0.25-3.69-0.74
		c-1.08-0.49-2-1.18-2.75-2.06c-0.75-0.88-1.33-1.93-1.73-3.14c-0.4-1.22-0.6-2.55-0.6-4.02c0-1.99,0.31-3.82,0.93-5.47
		c0.62-1.65,1.47-3.07,2.55-4.26s2.35-2.11,3.82-2.77c1.46-0.66,3.03-0.98,4.72-0.98c0.81,0,1.55,0.07,2.21,0.21
		s1.26,0.34,1.81,0.61s1.04,0.59,1.48,0.96c0.44,0.37,0.86,0.79,1.24,1.25l-1.02,1.25c-0.08,0.11-0.18,0.2-0.29,0.26
		c-0.11,0.07-0.24,0.1-0.4,0.1c-0.19,0-0.4-0.11-0.61-0.32c-0.21-0.21-0.5-0.45-0.87-0.7c-0.37-0.25-0.84-0.48-1.42-0.7
		c-0.58-0.21-1.34-0.32-2.26-0.32c-1.25,0-2.41,0.25-3.48,0.74s-2,1.21-2.79,2.13s-1.41,2.04-1.86,3.35
		c-0.45,1.31-0.68,2.78-0.68,4.42c0,1.18,0.15,2.25,0.46,3.18s0.74,1.74,1.29,2.39c0.55,0.66,1.2,1.16,1.96,1.51
		C264.7,74.31,265.54,74.48,266.44,74.48z"/>
	<path class="st1" d="M297.2,53.87l-2.83,22.93h-3.01l1.28-10.46h-11.18l-1.28,10.46h-3.01l2.82-22.93h3.01l-1.26,10.29h11.18
		l1.26-10.29H297.2z"/>
	<path class="st1" d="M303.1,76.8h-3.3l2.8-22.98h3.31L303.1,76.8z"/>
	<path class="st1" d="M338.84,53.83l-9.41,22.98h-2.98l-2.98-17.22c-0.03-0.18-0.06-0.38-0.09-0.58s-0.05-0.43-0.07-0.68
		c-0.16,0.47-0.31,0.89-0.46,1.26l-7.22,17.22h-2.94l-3.78-22.98h2.58c0.29,0,0.52,0.07,0.7,0.21c0.18,0.14,0.27,0.33,0.3,0.56
		l2.37,15.7c0.02,0.3,0.05,0.62,0.07,0.95c0.03,0.34,0.05,0.69,0.07,1.06c0.12-0.37,0.24-0.73,0.36-1.07
		c0.12-0.34,0.24-0.66,0.36-0.94l6.59-15.7c0.09-0.19,0.23-0.37,0.45-0.53c0.21-0.16,0.46-0.24,0.74-0.24h0.75
		c0.29,0,0.51,0.07,0.68,0.22c0.17,0.14,0.28,0.33,0.34,0.55l2.72,15.7c0.05,0.29,0.1,0.6,0.14,0.93c0.04,0.33,0.07,0.68,0.1,1.04
		c0.2-0.71,0.41-1.37,0.61-1.97l6.21-15.7c0.06-0.2,0.21-0.38,0.45-0.54c0.23-0.15,0.49-0.23,0.77-0.23H338.84z"/>
	<path class="st1" d="M356.91,76.8h-2.78c-0.32,0-0.57-0.08-0.74-0.23c-0.18-0.15-0.3-0.36-0.38-0.62l-1.09-5.17h-8.98l-2.37,5.17
		c-0.11,0.22-0.28,0.42-0.5,0.59c-0.23,0.17-0.49,0.26-0.79,0.26h-2.82l11.22-23.04h3.66L356.91,76.8z M351.37,68.19l-1.82-8.62
		c-0.05-0.33-0.12-0.71-0.2-1.14s-0.16-0.9-0.23-1.41c-0.18,0.51-0.36,0.98-0.54,1.42c-0.18,0.43-0.35,0.82-0.5,1.16l-3.94,8.59
		H351.37z"/>
	<path class="st1" d="M368.65,53.76c1.28,0,2.38,0.14,3.3,0.41c0.92,0.27,1.68,0.65,2.28,1.14c0.6,0.49,1.04,1.08,1.32,1.77
		c0.28,0.69,0.42,1.45,0.42,2.3c0,0.91-0.13,1.76-0.39,2.55c-0.26,0.79-0.64,1.51-1.13,2.15c-0.49,0.64-1.09,1.19-1.8,1.66
		c-0.71,0.46-1.51,0.82-2.39,1.06c0.42,0.27,0.75,0.65,1.01,1.14l4.51,8.86h-3.22c-0.64,0-1.07-0.25-1.28-0.75l-3.82-7.84
		c-0.14-0.27-0.3-0.46-0.49-0.58s-0.47-0.18-0.86-0.18h-1.86l-1.15,9.34h-3.58l2.82-23.04H368.65z M367.23,64.85
		c0.86,0,1.62-0.12,2.27-0.38c0.65-0.25,1.19-0.59,1.62-1.03c0.43-0.44,0.75-0.95,0.96-1.55c0.21-0.6,0.32-1.24,0.32-1.94
		c0-1.08-0.34-1.91-1.01-2.49s-1.69-0.87-3.06-0.87h-2.74l-1.01,8.26H367.23z"/>
	<path class="st1" d="M384.44,63.25h0.83c0.74,0,1.3-0.25,1.68-0.74l6.16-7.97c0.28-0.37,0.59-0.63,0.94-0.76
		c0.35-0.13,0.75-0.2,1.22-0.2h4l-7.81,9.62c-0.25,0.31-0.49,0.57-0.74,0.77c-0.25,0.2-0.5,0.37-0.77,0.51
		c0.34,0.13,0.64,0.31,0.89,0.55c0.25,0.24,0.47,0.55,0.65,0.94l5.46,10.83h-4.11c-0.53,0-0.92-0.08-1.15-0.23
		c-0.24-0.15-0.42-0.37-0.56-0.65l-4.24-8.43c-0.14-0.3-0.33-0.51-0.58-0.62c-0.25-0.12-0.61-0.18-1.06-0.18h-1.22l-1.25,10.11
		h-4.61L381,53.57h4.64L384.44,63.25z"/>
	<path class="st1" d="M404.33,76.8h-5.25l2.85-23.31h5.25L404.33,76.8z"/>
</g>
<g>
	<g>
		<g>
			<path class="st1" d="M49.51,104.45c0,0.19-0.03,0.36-0.1,0.51c-0.07,0.15-0.17,0.28-0.3,0.38c-0.13,0.11-0.28,0.18-0.45,0.23
				c-0.17,0.06-0.35,0.08-0.55,0.08c-0.13,0-0.27-0.01-0.38-0.04c-0.12-0.02-0.23-0.05-0.31-0.09c-0.1-0.03-0.17-0.07-0.23-0.11
				c-0.06-0.04-0.11-0.06-0.13-0.09c-0.03-0.03-0.04-0.06-0.06-0.1c-0.01-0.04-0.01-0.09-0.01-0.16c0-0.05,0-0.09,0-0.11
				c0.01-0.04,0.01-0.06,0.02-0.08c0.01-0.02,0.02-0.03,0.03-0.04c0.01-0.01,0.03-0.01,0.04-0.01c0.03,0,0.07,0.02,0.13,0.06
				c0.06,0.04,0.12,0.08,0.21,0.12c0.08,0.04,0.19,0.08,0.3,0.12c0.12,0.04,0.26,0.05,0.42,0.05c0.12,0,0.22-0.01,0.32-0.05
				c0.1-0.03,0.18-0.08,0.26-0.13c0.07-0.06,0.13-0.13,0.16-0.22c0.04-0.09,0.05-0.18,0.05-0.29c0-0.11-0.02-0.21-0.08-0.3
				c-0.05-0.08-0.12-0.16-0.21-0.22c-0.09-0.06-0.19-0.12-0.3-0.17c-0.11-0.06-0.23-0.11-0.34-0.16c-0.12-0.06-0.23-0.12-0.34-0.18
				c-0.11-0.06-0.21-0.14-0.3-0.23c-0.09-0.09-0.16-0.19-0.21-0.31c-0.06-0.12-0.08-0.26-0.08-0.43c0-0.17,0.04-0.32,0.1-0.46
				c0.06-0.13,0.15-0.25,0.26-0.34c0.11-0.09,0.25-0.16,0.4-0.21c0.15-0.05,0.32-0.07,0.5-0.07c0.09,0,0.18,0,0.27,0.02
				c0.09,0.02,0.18,0.04,0.26,0.06c0.08,0.03,0.16,0.06,0.22,0.09c0.06,0.03,0.1,0.06,0.12,0.08c0.02,0.02,0.03,0.04,0.04,0.05
				c0,0.01,0.01,0.03,0.01,0.04c0.01,0.02,0.01,0.04,0.01,0.06c0.01,0.03,0.01,0.06,0.01,0.1c0,0.04,0,0.07-0.01,0.1
				c-0.01,0.03-0.01,0.06-0.01,0.07c-0.01,0.02-0.01,0.03-0.03,0.04c-0.01,0.01-0.03,0.02-0.04,0.02c-0.02,0-0.06-0.02-0.11-0.05
				c-0.05-0.03-0.11-0.06-0.18-0.1c-0.07-0.04-0.16-0.07-0.26-0.1c-0.1-0.03-0.21-0.05-0.33-0.05c-0.12,0-0.21,0.02-0.3,0.05
				c-0.08,0.03-0.16,0.07-0.21,0.12c-0.06,0.05-0.1,0.11-0.13,0.18c-0.03,0.07-0.04,0.14-0.04,0.23c0,0.11,0.02,0.21,0.08,0.29
				c0.05,0.08,0.12,0.16,0.21,0.22c0.09,0.06,0.19,0.12,0.3,0.18c0.11,0.05,0.23,0.11,0.34,0.16c0.11,0.06,0.23,0.12,0.34,0.18
				c0.11,0.06,0.21,0.14,0.3,0.23c0.09,0.09,0.16,0.19,0.21,0.31C49.49,104.15,49.51,104.29,49.51,104.45z"/>
			<path class="st1" d="M52.02,105.52c0,0.02-0.01,0.03-0.01,0.05c-0.01,0.01-0.02,0.02-0.04,0.03c-0.02,0.01-0.05,0.01-0.08,0.02
				c-0.03,0-0.08,0.01-0.13,0.01c-0.05,0-0.1-0.01-0.13-0.01c-0.04-0.01-0.07-0.01-0.09-0.02c-0.02-0.01-0.04-0.02-0.04-0.03
				c-0.01-0.01-0.01-0.03-0.01-0.05v-3.95c0-0.02,0.01-0.03,0.01-0.04c0.01-0.01,0.02-0.02,0.05-0.03c0.02-0.01,0.05-0.01,0.08-0.02
				c0.04-0.01,0.08-0.01,0.13-0.01c0.05,0,0.1,0,0.13,0.01c0.04,0.01,0.06,0.01,0.08,0.02c0.02,0.01,0.04,0.02,0.04,0.03
				c0.01,0.01,0.01,0.03,0.01,0.04V105.52z"/>
			<path class="st1" d="M57.4,105.38c0,0.04-0.01,0.08-0.02,0.11c-0.01,0.03-0.04,0.05-0.06,0.07c-0.02,0.02-0.05,0.03-0.08,0.04
				c-0.03,0.01-0.06,0.01-0.09,0.01h-0.18c-0.06,0-0.11-0.01-0.15-0.02c-0.04-0.01-0.08-0.04-0.13-0.06
				c-0.04-0.03-0.07-0.07-0.11-0.13c-0.04-0.06-0.08-0.12-0.12-0.21l-1.26-2.34c-0.06-0.12-0.13-0.25-0.2-0.38
				c-0.07-0.13-0.13-0.26-0.19-0.38h-0.01c0,0.15,0.01,0.3,0.01,0.46c0,0.16,0,0.32,0,0.47v2.48c0,0.02,0,0.03-0.01,0.05
				c-0.01,0.01-0.03,0.02-0.05,0.03c-0.02,0.01-0.05,0.01-0.08,0.02c-0.04,0-0.08,0.01-0.13,0.01c-0.05,0-0.1-0.01-0.13-0.01
				c-0.04-0.01-0.06-0.01-0.08-0.02c-0.02-0.01-0.03-0.02-0.04-0.03c-0.01-0.02-0.01-0.03-0.01-0.05v-3.79
				c0-0.08,0.02-0.14,0.07-0.18c0.05-0.03,0.1-0.05,0.16-0.05h0.27c0.06,0,0.12,0.01,0.16,0.01c0.04,0.01,0.08,0.03,0.12,0.05
				c0.03,0.02,0.06,0.06,0.1,0.11c0.03,0.04,0.06,0.09,0.1,0.16l0.96,1.8c0.06,0.11,0.12,0.22,0.17,0.32
				c0.06,0.11,0.11,0.21,0.16,0.31c0.05,0.1,0.1,0.2,0.15,0.3c0.05,0.1,0.1,0.2,0.15,0.3h0c0-0.16-0.01-0.34-0.01-0.52
				c0-0.18,0-0.35,0-0.52v-2.23c0-0.01,0-0.03,0.01-0.04c0.01-0.01,0.02-0.02,0.05-0.03c0.02-0.01,0.05-0.02,0.08-0.03
				c0.03,0,0.08,0,0.13,0c0.05,0,0.09,0,0.13,0c0.04,0.01,0.06,0.01,0.08,0.03c0.02,0.01,0.04,0.02,0.04,0.03
				c0.01,0.01,0.01,0.03,0.01,0.04V105.38z"/>
			<path class="st1" d="M62.42,105.02c0,0.04,0,0.06,0,0.09c-0.01,0.03-0.01,0.05-0.01,0.06c0,0.02-0.01,0.04-0.02,0.05
				c-0.01,0.01-0.02,0.03-0.04,0.05c-0.02,0.02-0.06,0.06-0.13,0.1c-0.07,0.04-0.15,0.08-0.25,0.13c-0.1,0.04-0.21,0.08-0.35,0.1
				c-0.13,0.03-0.27,0.05-0.43,0.05c-0.27,0-0.51-0.05-0.73-0.14c-0.21-0.09-0.4-0.22-0.55-0.39c-0.15-0.18-0.27-0.39-0.35-0.65
				c-0.08-0.25-0.12-0.55-0.12-0.88c0-0.34,0.04-0.65,0.13-0.91c0.09-0.27,0.21-0.49,0.37-0.68c0.16-0.18,0.35-0.33,0.57-0.43
				c0.22-0.09,0.47-0.15,0.74-0.15c0.12,0,0.23,0.01,0.35,0.04c0.11,0.02,0.22,0.05,0.31,0.08c0.09,0.04,0.18,0.08,0.25,0.12
				c0.08,0.04,0.13,0.08,0.16,0.11c0.03,0.03,0.05,0.05,0.05,0.06c0.01,0.01,0.02,0.03,0.02,0.05c0.01,0.02,0.01,0.04,0.01,0.07
				c0,0.03,0.01,0.06,0.01,0.1c0,0.04,0,0.08-0.01,0.11c0,0.02-0.01,0.05-0.02,0.07c-0.01,0.02-0.02,0.04-0.03,0.04
				c-0.02,0.01-0.03,0.01-0.05,0.01c-0.03,0-0.07-0.02-0.12-0.06c-0.06-0.04-0.12-0.09-0.21-0.14c-0.09-0.05-0.19-0.09-0.31-0.13
				c-0.12-0.04-0.27-0.06-0.43-0.06c-0.18,0-0.35,0.04-0.5,0.11c-0.15,0.07-0.28,0.18-0.38,0.32c-0.11,0.14-0.19,0.31-0.25,0.52
				c-0.06,0.2-0.09,0.44-0.09,0.7c0,0.26,0.03,0.49,0.08,0.69c0.06,0.2,0.14,0.37,0.24,0.5c0.11,0.13,0.23,0.24,0.39,0.3
				c0.15,0.07,0.33,0.1,0.52,0.1c0.16,0,0.31-0.02,0.43-0.06c0.12-0.04,0.23-0.09,0.31-0.13c0.08-0.05,0.16-0.1,0.21-0.14
				c0.06-0.04,0.1-0.06,0.13-0.06c0.02,0,0.03,0,0.04,0.01c0.01,0.01,0.02,0.02,0.03,0.04c0.01,0.02,0.01,0.04,0.01,0.08
				C62.42,104.94,62.42,104.98,62.42,105.02z"/>
			<path class="st1" d="M66.61,105.38c0,0.04,0,0.07-0.01,0.1c-0.01,0.03-0.01,0.05-0.02,0.07c-0.01,0.02-0.02,0.03-0.04,0.04
				c-0.01,0.01-0.03,0.01-0.05,0.01h-1.97c-0.05,0-0.09-0.02-0.13-0.05c-0.04-0.03-0.07-0.09-0.07-0.18v-3.67
				c0-0.08,0.02-0.14,0.07-0.17c0.04-0.04,0.09-0.05,0.13-0.05h1.95c0.02,0,0.03,0.01,0.05,0.01c0.01,0.01,0.03,0.02,0.03,0.04
				c0.01,0.02,0.02,0.05,0.02,0.07c0,0.03,0.01,0.06,0.01,0.11c0,0.04,0,0.07-0.01,0.1c-0.01,0.03-0.01,0.05-0.02,0.07
				c-0.01,0.02-0.02,0.03-0.03,0.04c-0.01,0.01-0.03,0.01-0.05,0.01h-1.61v1.29h1.38c0.02,0,0.03,0.01,0.04,0.01
				c0.01,0.01,0.02,0.02,0.03,0.04c0.01,0.02,0.02,0.04,0.02,0.07c0.01,0.03,0.01,0.06,0.01,0.1s0,0.07-0.01,0.1
				c0,0.03-0.01,0.05-0.02,0.07c-0.01,0.02-0.02,0.04-0.03,0.04c-0.01,0.01-0.03,0.01-0.04,0.01h-1.38v1.47h1.63
				c0.02,0,0.04,0.01,0.05,0.02c0.02,0.01,0.03,0.02,0.04,0.04c0.01,0.01,0.02,0.04,0.02,0.07
				C66.61,105.3,66.61,105.34,66.61,105.38z"/>
			<path class="st1" d="M78.23,103.39c0,0.18-0.01,0.36-0.03,0.54c-0.02,0.18-0.06,0.36-0.11,0.52c-0.05,0.17-0.12,0.33-0.2,0.47
				c-0.09,0.15-0.2,0.28-0.33,0.39c-0.13,0.11-0.29,0.2-0.47,0.26c-0.18,0.06-0.39,0.1-0.62,0.1c-0.09,0-0.18-0.01-0.27-0.02
				c-0.08-0.01-0.16-0.03-0.23-0.04c-0.07-0.02-0.13-0.04-0.18-0.06c-0.04-0.02-0.08-0.04-0.1-0.05c-0.02-0.02-0.04-0.05-0.04-0.08
				c-0.01-0.04-0.02-0.08-0.02-0.13c0-0.05,0-0.08,0.01-0.11c0-0.03,0.01-0.05,0.01-0.06c0.01-0.01,0.01-0.02,0.03-0.03
				c0.01-0.01,0.03-0.01,0.04-0.01c0.02,0,0.06,0.01,0.1,0.03c0.04,0.01,0.09,0.03,0.16,0.05c0.06,0.02,0.14,0.04,0.23,0.05
				c0.09,0.02,0.18,0.02,0.3,0.02c0.2,0,0.38-0.04,0.53-0.12c0.15-0.08,0.27-0.18,0.36-0.32c0.09-0.13,0.16-0.28,0.21-0.46
				c0.05-0.18,0.07-0.36,0.08-0.56c-0.11,0.06-0.24,0.13-0.4,0.18c-0.16,0.05-0.33,0.08-0.54,0.08c-0.23,0-0.42-0.03-0.58-0.09
				c-0.15-0.06-0.28-0.15-0.37-0.26c-0.1-0.11-0.16-0.24-0.2-0.39c-0.04-0.15-0.06-0.31-0.06-0.49c0-0.18,0.03-0.35,0.08-0.52
				c0.05-0.16,0.13-0.31,0.25-0.43c0.11-0.13,0.26-0.22,0.43-0.3c0.17-0.07,0.38-0.11,0.62-0.11c0.17,0,0.32,0.02,0.45,0.06
				c0.13,0.04,0.25,0.1,0.35,0.19c0.1,0.08,0.18,0.18,0.25,0.29c0.07,0.11,0.12,0.25,0.16,0.39c0.04,0.15,0.07,0.3,0.09,0.48
				C78.22,103.02,78.23,103.2,78.23,103.39z M77.67,103.32c0-0.27-0.02-0.5-0.05-0.68c-0.04-0.18-0.09-0.34-0.16-0.45
				c-0.07-0.12-0.16-0.2-0.26-0.25c-0.1-0.05-0.22-0.08-0.35-0.08c-0.14,0-0.26,0.02-0.35,0.08c-0.1,0.05-0.18,0.11-0.24,0.2
				c-0.06,0.08-0.11,0.18-0.14,0.28c-0.03,0.11-0.04,0.21-0.04,0.33c0,0.13,0.01,0.24,0.04,0.35c0.03,0.1,0.07,0.19,0.13,0.26
				c0.06,0.07,0.14,0.12,0.23,0.17c0.1,0.04,0.21,0.06,0.35,0.06c0.16,0,0.31-0.02,0.46-0.07
				C77.44,103.47,77.56,103.41,77.67,103.32z"/>
			<path class="st1" d="M82.7,103.39c0,0.18-0.01,0.36-0.03,0.54c-0.02,0.18-0.06,0.36-0.11,0.52c-0.05,0.17-0.12,0.33-0.2,0.47
				c-0.09,0.15-0.2,0.28-0.33,0.39c-0.13,0.11-0.29,0.2-0.47,0.26c-0.18,0.06-0.38,0.1-0.62,0.1c-0.09,0-0.18-0.01-0.27-0.02
				c-0.08-0.01-0.16-0.03-0.23-0.04c-0.07-0.02-0.13-0.04-0.18-0.06c-0.05-0.02-0.08-0.04-0.1-0.05c-0.02-0.02-0.03-0.05-0.04-0.08
				c-0.01-0.04-0.02-0.08-0.02-0.13c0-0.05,0-0.08,0.01-0.11c0-0.03,0.01-0.05,0.01-0.06c0.01-0.01,0.02-0.02,0.03-0.03
				c0.01-0.01,0.03-0.01,0.05-0.01c0.02,0,0.06,0.01,0.1,0.03c0.04,0.01,0.1,0.03,0.16,0.05c0.07,0.02,0.14,0.04,0.23,0.05
				c0.09,0.02,0.18,0.02,0.29,0.02c0.21,0,0.38-0.04,0.53-0.12c0.15-0.08,0.27-0.18,0.36-0.32c0.09-0.13,0.16-0.28,0.21-0.46
				c0.04-0.18,0.07-0.36,0.08-0.56c-0.11,0.06-0.25,0.13-0.4,0.18c-0.16,0.05-0.34,0.08-0.54,0.08c-0.23,0-0.42-0.03-0.57-0.09
				c-0.16-0.06-0.28-0.15-0.38-0.26c-0.09-0.11-0.16-0.24-0.21-0.39c-0.04-0.15-0.06-0.31-0.06-0.49c0-0.18,0.03-0.35,0.08-0.52
				c0.06-0.16,0.13-0.31,0.25-0.43c0.11-0.13,0.26-0.22,0.43-0.3c0.18-0.07,0.38-0.11,0.62-0.11c0.17,0,0.32,0.02,0.45,0.06
				c0.13,0.04,0.25,0.1,0.35,0.19c0.1,0.08,0.18,0.18,0.25,0.29c0.06,0.11,0.12,0.25,0.16,0.39c0.04,0.15,0.07,0.3,0.09,0.48
				C82.69,103.02,82.7,103.2,82.7,103.39z M82.15,103.32c0-0.27-0.02-0.5-0.06-0.68c-0.04-0.18-0.09-0.34-0.16-0.45
				c-0.07-0.12-0.15-0.2-0.26-0.25c-0.1-0.05-0.22-0.08-0.35-0.08c-0.13,0-0.26,0.02-0.35,0.08c-0.1,0.05-0.18,0.11-0.24,0.2
				c-0.06,0.08-0.11,0.18-0.13,0.28c-0.04,0.11-0.05,0.21-0.05,0.33c0,0.13,0.01,0.24,0.04,0.35c0.03,0.1,0.07,0.19,0.13,0.26
				c0.06,0.07,0.13,0.12,0.23,0.17c0.1,0.04,0.21,0.06,0.35,0.06c0.16,0,0.31-0.02,0.46-0.07
				C81.91,103.47,82.04,103.41,82.15,103.32z"/>
			<path class="st1" d="M87.28,103.54c0,0.32-0.02,0.61-0.07,0.87c-0.05,0.26-0.13,0.48-0.25,0.67c-0.11,0.19-0.26,0.33-0.45,0.44
				c-0.19,0.11-0.42,0.16-0.69,0.16c-0.26,0-0.47-0.05-0.66-0.14c-0.18-0.09-0.32-0.23-0.42-0.41c-0.11-0.18-0.19-0.4-0.23-0.66
				c-0.05-0.26-0.07-0.56-0.07-0.9c0-0.31,0.03-0.6,0.08-0.86c0.05-0.27,0.13-0.49,0.25-0.68c0.11-0.18,0.27-0.33,0.45-0.44
				c0.18-0.1,0.42-0.15,0.69-0.15c0.26,0,0.48,0.04,0.66,0.13c0.18,0.09,0.32,0.23,0.43,0.4c0.11,0.18,0.19,0.4,0.23,0.66
				C87.26,102.9,87.28,103.2,87.28,103.54z M86.73,103.58c0-0.21-0.01-0.39-0.02-0.55c-0.02-0.16-0.04-0.31-0.07-0.44
				c-0.03-0.12-0.06-0.23-0.11-0.32c-0.04-0.09-0.1-0.17-0.16-0.23c-0.06-0.06-0.14-0.1-0.22-0.13c-0.08-0.03-0.17-0.04-0.28-0.04
				c-0.18,0-0.33,0.04-0.44,0.13c-0.11,0.08-0.2,0.2-0.27,0.35c-0.06,0.15-0.11,0.33-0.13,0.52c-0.02,0.2-0.04,0.41-0.04,0.64
				c0,0.31,0.02,0.57,0.05,0.79c0.03,0.22,0.08,0.39,0.15,0.52c0.07,0.13,0.16,0.23,0.26,0.3c0.11,0.06,0.23,0.09,0.39,0.09
				c0.12,0,0.22-0.02,0.31-0.06c0.09-0.04,0.17-0.09,0.23-0.16c0.07-0.07,0.12-0.16,0.16-0.26c0.04-0.1,0.08-0.21,0.1-0.33
				c0.03-0.12,0.04-0.26,0.05-0.4C86.72,103.88,86.73,103.73,86.73,103.58z"/>
			<path class="st1" d="M72.87,104.28v-2.72c0-0.01-0.01-0.02-0.01-0.04c-0.01-0.01-0.02-0.02-0.04-0.03
				c-0.02-0.01-0.04-0.01-0.08-0.01c-0.04-0.01-0.08-0.01-0.13-0.01c-0.04,0-0.07,0-0.09,0c-0.03,0-0.05,0.01-0.07,0.01
				c-0.02,0-0.03,0.01-0.05,0.01c-0.01,0.01-0.02,0.01-0.03,0.01l-0.95,0.61c-0.02,0.01-0.04,0.02-0.04,0.04
				c-0.01,0.01-0.02,0.02-0.03,0.04c0,0.01-0.01,0.04-0.01,0.06c-0.01,0.02-0.01,0.06-0.01,0.09c0,0.05,0,0.09,0.01,0.12
				c0.01,0.03,0.02,0.06,0.04,0.07c0.01,0.01,0.03,0.01,0.06,0.01c0.02,0,0.06-0.01,0.1-0.04l0.79-0.47v2.86l0,0v0.61
				c0,0.02,0.01,0.03,0.01,0.04c0.01,0.01,0.03,0.02,0.04,0.03c0.02,0.01,0.05,0.02,0.09,0.02c0.04,0,0.08,0.01,0.13,0.01
				c0.05,0,0.1-0.01,0.13-0.01c0.04-0.01,0.06-0.01,0.08-0.02c0.02-0.01,0.04-0.01,0.04-0.03c0.01-0.01,0.01-0.03,0.01-0.04V104.28
				L72.87,104.28z"/>
		</g>
	</g>
</g>
</svg>
